# xmcd
#
# Track frame offsets:
#	183
#	9225
#	24908
#	34373
#	47983
#	59708
#	77653
#	90198
#	101230
#	117965
#	121558
#	138555
#
# Disc length: 1974 seconds
#
# Revision: 1
# Processed by: cddbd v1.5PL3 Copyright (c) Steve Scherf et al.
# Submitted via: audiograbber 1.83.01
#
DISCID=9407b40c
DTITLE=Vìdro And Friends - Bluegrass
DYEAR=1990
DGENRE=Bluegrass
TTITLE0=Old Joe Clark
TTITLE1=In The Pines
TTITLE2=Light At The River
TTITLE3=Dark Hollow
TTITLE4=Sitting On The Top Of The World
TTITLE5=Wayfaring Stranger
TTITLE6=Red Haired Boy
TTITLE7=Ain't Gonna Work
TTITLE8=Midnight On The Stormy Deep
TTITLE9=Black Mountain Rag
TTITLE10=Drifting Too Far From The Shore
TTITLE11=Swing Low, Sweet Chariot
EXTD=
EXTT0=
EXTT1=
EXTT2=
EXTT3=
EXTT4=
EXTT5=
EXTT6=
EXTT7=
EXTT8=
EXTT9=
EXTT10=
EXTT11=
PLAYORDER=
